<svg width="133" height="141" viewBox="0 0 133 141" fill="none" xmlns="http://www.w3.org/2000/svg">
<path d="M33.6433 112.545C41.833 109.689 48.7229 103.983 53.0558 96.4698C57.3886 88.9561 58.8756 80.1351 57.2453 71.6162C55.2513 60.9126 57.1654 49.8488 62.6395 40.4373C68.1136 31.0257 76.784 23.8916 87.0736 20.3326L101.838 15.2746C101.339 14.8839 100.898 14.4821 100.34 14.1025C77.5989 -1.36394 42.0084 11.3634 20.7316 42.4978C2.8064 69.229 0.995811 100.543 15.17 118.855L33.6433 112.545Z" fill="white"/>
<path d="M66.3869 69.8758C68.3846 80.5766 66.481 91.6391 61.0212 101.057C55.5615 110.474 46.9073 117.623 36.6284 121.207L22.6032 126.003L23.6719 126.831C46.4129 142.298 82.0146 129.629 103.291 98.4948C121.189 72.2546 123.222 40.837 109.163 22.8068L90.1257 29.3462C81.9831 32.1571 75.1144 37.7877 70.7608 45.2207C66.4072 52.6537 64.8558 61.3988 66.3869 69.8758Z" fill="white"/>
</svg>
