<svg width="621" height="148" viewBox="0 0 621 148" fill="none" xmlns="http://www.w3.org/2000/svg">
<g clip-path="url(#clip0_29_16)">
<path d="M33.6433 115.545C41.833 112.689 48.7229 106.983 53.0558 99.4698C57.3886 91.9561 58.8756 83.1351 57.2453 74.6162C55.2513 63.9126 57.1654 52.8488 62.6395 43.4373C68.1136 34.0257 76.784 26.8916 87.0736 23.3326L101.838 18.2746C101.339 17.8839 100.898 17.4821 100.34 17.1025C77.5989 1.63606 42.0084 14.3634 20.7316 45.4978C2.8064 72.229 0.995811 103.543 15.17 121.855L33.6433 115.545Z" fill="black"/>
<path d="M66.3869 72.8758C68.3846 83.5766 66.481 94.6391 61.0212 104.057C55.5615 113.474 46.9073 120.623 36.6284 124.207L22.6032 129.003L23.6719 129.831C46.4129 145.298 82.0146 132.629 103.291 101.495C121.189 75.2546 123.222 43.837 109.163 25.8068L90.1257 32.3462C81.9831 35.1571 75.1144 40.7877 70.7608 48.2207C66.4072 55.6537 64.8558 64.3988 66.3869 72.8758Z" fill="black"/>
</g>
<path d="M212.44 81.56C212.44 79.52 212.92 77.72 213.28 75.8C215.2 64.52 215.68 53 215.68 41.48C215.68 37.16 215.56 32.84 215.2 28.64C214.84 25.76 214.12 22.88 214.12 20.12C214.12 17.12 216.4 15.2 219.28 15.2C222.16 15.2 223.6 18.08 223.96 20.48C224.44 24.44 224.44 28.52 224.44 32.48C224.44 37.04 224.2 41.72 224.08 46.4C229.48 44.84 231.88 42.8 236.68 40.16C237.4 39.8 238.12 39.56 238.96 39.56C241.12 39.56 243.04 41.84 243.04 43.88C243.04 49.28 227.92 54.44 223.36 55.4C223 59.72 220.48 80.96 218.92 83.48C218.32 84.44 217.12 85.04 215.92 85.04C214 85.04 212.44 83.48 212.44 81.56ZM172.6 69.8C175 69.32 176.92 68.72 179.32 67.64C188.92 63.32 196.6 58.04 203.68 50.12C204.64 49.04 205.72 48.44 206.92 48.44C208.84 48.44 210.4 50.48 210.4 52.04C210.4 52.76 210.16 53.48 209.8 54.2C205.6 61.28 191.8 69.92 184.6 73.76C180.76 75.8 176.56 77.96 172 77.96C167.68 77.96 164.68 75.44 163.6 71C163.12 68.84 162.88 66.44 162.64 64.28C162.04 60.08 161.32 56.24 160 52.28C159.88 51.68 159.64 50.96 159.4 50.36C158.2 50.72 156.52 50.84 155.2 50.84C152.68 50.84 150.52 48.68 150.4 46.28C150.4 44.24 151.24 42.68 153.28 42.08C155.08 41.48 157.24 41.24 159.4 41C166.48 40.16 173.32 38.36 180.04 36.08C181.6 35.48 183.76 34.88 184.6 34.76C186.76 34.64 188.44 36.08 188.44 38.12C188.44 39.2 187.96 40.28 187 41C184.84 42.44 177.04 44.96 172 46.64C170.56 47.12 169.6 47.48 168.88 47.72C170.32 53.96 171.28 60.2 172 66.32C172.12 67.52 172.36 68.72 172.6 69.8ZM201.76 119.96C191.08 119.96 183.28 112.16 183.28 101.48C183.28 92 192.64 82.64 201.88 82.64C212.68 82.64 222.52 91.28 222.52 102.2C222.52 113.36 211.96 119.96 201.76 119.96ZM202 91.16C196.96 91.16 191.56 96.8 191.56 102.08C191.56 107.72 196.36 111.56 201.76 111.56C207.4 111.56 213.88 108.44 213.88 102.08C213.88 95.96 208 91.16 202 91.16ZM309.131 51.56C309.131 44.12 308.891 36.44 306.971 29.36C306.491 27.44 305.411 25.64 305.411 23.72C305.411 20.96 308.171 19.04 310.691 19.04C312.491 19.04 313.811 20.36 314.651 21.8C316.811 25.16 317.651 38.48 317.651 42.92C317.651 54.8 316.211 66.44 313.331 78.08C312.851 80.12 312.011 84.08 310.811 85.76C310.211 86.6 309.251 87.32 307.931 87.32C306.131 87.32 304.451 85.64 304.451 83.72C304.451 82.04 306.131 77 306.611 75.08C308.171 67.4 309.131 59.36 309.131 51.56ZM246.371 73.88C246.371 72.2 248.531 70.04 250.331 68.36C257.051 61.76 264.971 48.32 266.891 39.2C267.251 37.28 267.611 35.24 268.451 33.8C269.411 32.24 270.971 31.64 272.891 31.64C275.531 31.64 277.571 34.28 277.571 36.68C277.571 39.68 273.731 47.84 272.171 50.84C277.811 53.72 287.531 62.6 292.451 67.04C293.411 67.88 294.371 69.2 294.371 70.52C294.371 72.8 292.331 74.48 289.931 74.48C289.211 74.48 288.011 74.36 287.411 73.88C285.731 72.56 284.411 71.24 282.971 69.92C278.291 65.48 273.251 61.76 267.971 58.04C265.331 62 254.651 77.24 249.851 77.24C248.051 77.24 246.371 75.44 246.371 73.88ZM296.531 117.68C295.691 117.68 294.731 117.56 294.011 117.32C285.131 114.08 278.411 102.68 276.491 93.92C276.371 93.44 276.371 92.96 276.371 92.48C276.371 89.96 278.891 87.92 281.291 87.92C283.451 87.92 284.891 88.88 285.611 90.92C286.211 92.36 286.451 94.04 286.931 95.72C288.371 100.16 290.651 104.96 294.491 108.2C294.851 108.56 296.531 109.64 296.891 109.64C301.931 109.64 307.211 106.88 311.291 104.12C312.611 103.16 314.411 101.24 315.851 100.52C316.571 100.16 317.051 99.92 317.771 99.92C319.691 99.92 321.371 101.48 321.371 103.52C321.371 104.6 320.651 105.68 319.931 106.52C315.011 111.44 303.731 117.68 296.531 117.68ZM339.797 99.8C337.037 99.8 334.997 97.52 334.997 94.76C334.997 92.6 336.917 90.56 338.957 90.32C342.917 89.72 346.517 90.08 350.477 89C362.597 85.52 373.637 75.2 381.197 65.24C385.037 60.08 386.237 58.4 387.317 56.12C387.317 47.48 387.077 39.68 385.277 31.4C384.917 29.72 384.317 28.16 384.317 26.48C384.317 23.6 386.597 21.68 389.357 21.68C391.157 21.68 392.477 22.76 393.437 24.2C395.477 27.56 396.077 41 396.077 45.32C396.077 61.64 394.277 77.6 392.357 93.68C392.117 95.36 392.117 97.16 391.757 98.96C391.397 100.52 389.957 101.84 388.277 101.84C386.357 101.84 384.677 100.28 384.677 98.24C384.677 95.12 385.277 92.12 385.517 89.12C386.237 82.64 386.717 76.28 386.957 69.68C376.277 85.04 359.597 99.8 339.797 99.8ZM348.797 69.56C338.837 69.56 331.637 60.92 331.637 51.56C331.637 49.4 331.757 47.12 332.477 44.84C334.997 37.4 344.597 31.52 352.397 31.52C363.197 31.52 368.837 40.04 368.837 50C368.837 61.4 360.317 69.56 348.797 69.56ZM352.397 39.68C348.437 39.68 342.797 42.8 340.997 46.52C340.397 47.96 340.157 49.52 340.157 51.2C340.157 56.12 343.517 61.52 348.797 61.52C355.517 61.52 360.317 56.96 360.317 50C360.317 44.6 358.277 39.68 352.397 39.68ZM479.266 49.16C470.146 52.88 461.746 55.52 451.666 55.52C447.826 55.52 443.266 55.04 443.266 50.36C443.266 47.96 445.666 45.8 448.066 45.8C449.746 45.8 451.426 46.28 453.106 46.28C460.786 46.28 468.826 44.12 475.906 41.24C478.186 40.28 481.426 38.96 482.986 38.96C485.506 38.96 486.826 40.4 487.186 42.56C487.666 44.96 487.786 47.24 487.786 49.52C487.786 53.48 487.546 57.56 487.066 61.64C489.706 60.56 492.346 59.36 494.986 58.28C501.706 55.4 507.946 51.56 514.066 47.48C513.706 40.28 512.746 32.96 511.666 25.76C511.306 23.12 513.826 20.84 516.466 20.84C518.386 20.84 520.186 21.92 520.906 23.6C521.986 26.24 522.946 44.12 522.946 48.08C522.946 64.4 520.786 80.6 518.626 96.68C518.386 98.36 517.906 101.6 517.666 103.16C517.306 105.56 515.506 106.52 514.186 106.52C512.266 106.52 510.466 104.48 510.586 102.56C510.946 97.64 511.666 92.84 512.146 88.04C513.226 77.96 514.066 67.76 514.186 57.56C507.466 62 500.146 65.36 492.706 68.36C491.146 69.08 487.906 70.4 485.506 71.12C484.306 77.24 482.386 83.24 479.986 89.12C478.906 92.24 477.586 95.6 475.546 98.36C474.826 99.32 473.626 100.04 472.306 100.04C470.386 100.04 468.706 98.48 468.706 96.68C468.706 95.36 470.026 92.72 471.106 90.8C474.106 85.04 475.906 78.44 477.226 72.2C471.466 75.68 454.546 84.56 449.386 84.56C447.226 84.56 445.546 82.28 445.546 80.36C445.546 78.92 446.626 77.96 447.706 77.12C448.786 76.28 452.746 74.72 456.586 73.28C463.666 70.52 469.666 67.28 476.386 63.2C477.346 62.72 477.946 62 479.026 61.28C479.266 58.4 479.626 52.04 479.266 49.16ZM602.952 58.16C602.952 51.68 602.952 45.32 602.352 38.84C602.112 35.6 601.392 32.24 601.392 28.88C601.392 26.24 603.672 23.96 606.312 23.96C608.472 23.96 610.152 25.28 610.752 27.44C611.832 31.28 611.712 35.96 611.712 40.04C611.712 55.4 610.872 70.52 609.312 85.76C609.072 88.4 608.712 91.16 608.352 93.92C608.232 95.96 608.112 98 607.752 100.04C607.392 101.48 605.832 102.56 604.392 102.56C602.472 102.56 600.792 101 600.792 98.96C600.792 94.88 601.512 90.68 601.872 86.36C602.472 77.12 602.952 67.64 602.952 58.16ZM577.752 37.52C577.752 38.84 577.032 39.8 575.832 40.64C568.632 45.32 548.112 54.08 539.472 54.08C536.832 54.08 534.672 51.8 534.672 49.28C534.672 47.6 535.752 45.92 537.312 45.08C538.392 44.6 540.672 44.36 542.832 44.12C551.352 43.4 559.392 40.04 567.192 36.8C568.872 36.08 570.672 35.24 572.472 34.52C573.072 34.28 573.672 34.16 574.392 34.16C576.192 34.16 577.752 35.96 577.752 37.52ZM565.032 65C565.032 61.88 565.032 58.88 563.712 56C563.352 54.92 562.872 53.84 562.872 52.76C562.872 50.12 565.632 48.32 568.152 48.32C573.192 48.32 573.912 56.24 573.912 59.6C573.912 63.92 573.312 68.24 572.592 72.44C577.392 68.36 582.072 64.16 586.392 59.48C588.192 57.56 590.712 54.92 591.912 54.2C592.752 53.48 593.352 53.24 594.552 53.24C596.232 53.24 598.032 55.04 598.032 56.72C598.032 57.44 597.552 58.28 596.952 59.12C594.192 62.48 590.712 65.36 587.592 68.48C577.272 79.16 566.712 89.6 552.672 95.6C550.632 96.44 547.392 97.88 545.232 97.88C542.592 97.88 540.552 95.48 540.552 93.2C540.552 91.4 541.512 90.08 543.312 89.24C544.632 88.52 546.312 88.04 547.872 87.56C549.192 87.2 550.272 86.84 551.592 86.24C550.272 78.8 548.232 71.84 545.112 65.24C544.512 64.04 544.032 62.84 543.552 61.64C543.312 61.04 543.312 60.44 543.312 59.96C543.312 57.56 545.832 55.64 548.232 55.64C549.672 55.64 551.352 56.24 552.192 57.44C554.232 60.44 557.832 77.96 558.552 82.76C560.472 81.8 562.152 80.48 563.952 79.16C564.672 74.48 565.032 69.8 565.032 65Z" fill="black"/>
<defs>
<clipPath id="clip0_29_16">
<rect width="143.168" height="143.168" fill="white" transform="translate(0 4.50977) rotate(-1.80513)"/>
</clipPath>
</defs>
</svg>
